<svg width="175" height="27" viewBox="0 0 175 27" fill="none" xmlns="http://www.w3.org/2000/svg">
<path d="M14.1513 5.94395C13.6736 5.26797 13.0287 4.77847 12.2167 4.47544C11.4285 4.14911 10.5925 3.98594 9.70884 3.98594C9.18339 3.98594 8.66988 4.04421 8.16832 4.16076C7.69064 4.27731 7.24879 4.46379 6.84276 4.72019C6.46062 4.9766 6.15012 5.31459 5.91128 5.73416C5.67244 6.13042 5.55302 6.60827 5.55302 7.1677C5.55302 8.00685 5.85157 8.64786 6.44867 9.09074C7.04577 9.53363 7.78618 9.91823 8.66988 10.2446C9.55359 10.5709 10.5209 10.8856 11.5718 11.1886C12.6227 11.4916 13.59 11.9112 14.4737 12.4473C15.3574 12.9834 16.0978 13.6944 16.6949 14.5802C17.292 15.4659 17.5905 16.6431 17.5905 18.1116C17.5905 19.4402 17.3398 20.6057 16.8382 21.608C16.3366 22.587 15.6559 23.4028 14.7961 24.0555C13.9602 24.7082 12.9809 25.1977 11.8584 25.524C10.7358 25.8503 9.55359 26.0135 8.31162 26.0135C6.73528 26.0135 5.21865 25.7571 3.76173 25.2443C2.3048 24.7315 1.05089 23.869 0 22.6569L3.40347 19.4402C3.9528 20.256 4.66932 20.8971 5.55302 21.3632C6.46061 21.8061 7.41597 22.0276 8.4191 22.0276C8.94455 22.0276 9.47 21.9576 9.99544 21.8178C10.5209 21.6779 10.9986 21.4681 11.4285 21.1884C11.8584 20.9087 12.2047 20.5591 12.4674 20.1395C12.7302 19.6966 12.8615 19.1955 12.8615 18.636C12.8615 17.7269 12.563 17.0277 11.9659 16.5382C11.3688 16.0487 10.6284 15.6407 9.74466 15.3144C8.86095 14.9648 7.89365 14.6384 6.84276 14.3354C5.79186 14.0324 4.82456 13.6245 3.94086 13.1116C3.05715 12.5755 2.31675 11.8762 1.71965 11.0138C1.12255 10.128 0.823997 8.95088 0.823997 7.48238C0.823997 6.20035 1.08672 5.09315 1.61217 4.16076C2.1615 3.22838 2.86608 2.45916 3.7259 1.85311C4.60961 1.22375 5.61273 0.757561 6.73528 0.454535C7.85783 0.151512 9.00426 0 10.1746 0C11.5121 0 12.8018 0.198131 14.0438 0.594393C15.3096 0.990657 16.4441 1.64333 17.4472 2.5524L14.1513 5.94395Z" fill="#11253E"/>
<path d="M38.0872 4.6153H30.313V0.629359H50.3755V4.6153H42.6013V25.3842H38.0872V4.6153Z" fill="#11253E"/>
<path d="M105.716 4.6153H97.9415V0.629359H118.004V4.6153H110.23V25.3842H105.716V4.6153Z" fill="#11253E"/>
<path d="M152.895 0.629359H157.409V11.1187H157.624L168.121 0.629359H174.212L162.353 12.0627L175 25.3842H168.659L157.66 13.2165H157.409V25.3842H152.895V0.629359Z" fill="#11253E"/>
<path fill-rule="evenodd" clip-rule="evenodd" d="M137.008 6.55884L128.416 25.802H132.675L141.267 6.55884H137.008Z" fill="#11253E"/>
<path fill-rule="evenodd" clip-rule="evenodd" d="M132.958 6.55706H137.008L139.641 0.627563H135.592L132.958 6.55706Z" fill="#32D993"/>
<path fill-rule="evenodd" clip-rule="evenodd" d="M55.7532 25.6335H60.5617L63.6887 19.8528H58.8802L55.7532 25.6335Z" fill="#32D993"/>
<path fill-rule="evenodd" clip-rule="evenodd" d="M72.2056 0.5H76.1135L87.0486 25.5952H81.8858L79.5195 19.853H68.9141V19.8529H63.6897L72.2056 0.5ZM77.942 16.025L74.034 5.81677L70.0544 16.025H77.942Z" fill="#11253E"/>
</svg>
