<svg id="Layer_1" data-name="Layer 1" xmlns="http://www.w3.org/2000/svg" width="974.97" height="974.88" viewBox="0 0 974.97 974.88"><defs><style>.cls-1{fill:#1c1a19;}.cls-2{fill:#1d1d1b;}</style></defs><path class="cls-1" d="M0,487.38C.15,218.09,218.88-.2,488.4,0,756.65.2,975.86,219.93,975,487.72c-.9,269.95-219.18,487.56-488.65,487.15C218.21,974.47-.15,755.59,0,487.38Zm75,.09c.06,228.07,184.15,412.32,412,412.4C715.66,900,900.09,715.72,900,487.39S715.75,75,487.44,75,74.94,259.28,75,487.47Z"/><path class="cls-2" d="M270.37,622a196.3,196.3,0,0,1-32.81-2.66,188.69,188.69,0,0,1-29-7.2,174,174,0,0,1-23.84-9.93,102.09,102.09,0,0,1-17.29-10.91l35.23-60.44a168.84,168.84,0,0,0,15.6,9.37,158.76,158.76,0,0,0,17.69,8.08,132.71,132.71,0,0,0,18.51,5.66,81.62,81.62,0,0,0,18,2.1A41.2,41.2,0,0,0,286,554.08a16.86,16.86,0,0,0,8.41-6.06,17.37,17.37,0,0,0,2.91-10.27,19.31,19.31,0,0,0-3-10.74,33.27,33.27,0,0,0-9.46-9,147.72,147.72,0,0,0-17-9.54q-10.5-5.16-25.53-12.28a121.1,121.1,0,0,1-20.77-12.52,82.57,82.57,0,0,1-15.84-15.6,66.26,66.26,0,0,1-10-18.58,64.83,64.83,0,0,1-3.47-21.34,74.1,74.1,0,0,1,6.63-30.62A84.73,84.73,0,0,1,217.84,371a91.47,91.47,0,0,1,29.5-18.74q17.21-6.94,38.38-7a154.42,154.42,0,0,1,28.85,2.91,195.59,195.59,0,0,1,29.65,8.08,130.42,130.42,0,0,1,25.21,12l-28.12,57.21a116.42,116.42,0,0,0-17.77-8.33A125,125,0,0,0,305,411.78a88.3,88.3,0,0,0-17.45-1.86,43.73,43.73,0,0,0-13.58,1.86,18.66,18.66,0,0,0-8.72,5.5,13.65,13.65,0,0,0-3.08,9.13,12.29,12.29,0,0,0,1.54,6.22,15,15,0,0,0,5,4.93,68.79,68.79,0,0,0,9.29,4.85l14.22,6.3q20.85,9.21,36.53,17.78a126.9,126.9,0,0,1,26.1,18.34,63.89,63.89,0,0,1,15.59,22.22q5.18,12.45,5.17,29.25,0,26.84-12.84,46.06t-36.45,29.41Q302.69,622,270.37,622Z"/><path class="cls-2" d="M433.78,616.78,322,350.13h80.16L461.58,509.8l59.47-159.67h80.16L489.38,616.78Z"/><path class="cls-2" d="M665.36,622a124.55,124.55,0,0,1-50.91-10.42,127.4,127.4,0,0,1-41.37-29.17,135.16,135.16,0,0,1-27.72-44q-9.93-25.29-9.94-55a148.81,148.81,0,0,1,9.7-54.06,131.79,131.79,0,0,1,27.63-44,127.26,127.26,0,0,1,42.83-29.42q24.88-10.58,55.27-10.58a195.2,195.2,0,0,1,66.66,12.28,140.65,140.65,0,0,1,31.11,16.16L736,429a93.58,93.58,0,0,0-31.19-15.11q-17.94-5.08-32.65-5.09t-25.85,4.93a49.94,49.94,0,0,0-18.75,14.22,62.21,62.21,0,0,0-11.39,22.47,106.66,106.66,0,0,0-3.8,29.65q0,18.1,4.36,32.24a74.24,74.24,0,0,0,12,24,51.45,51.45,0,0,0,18.1,15,50.76,50.76,0,0,0,22.55,5.09,53,53,0,0,0,18.18-3.07,48,48,0,0,0,14.87-8.49,41.17,41.17,0,0,0,10-12.36,31,31,0,0,0,3.63-14.54v-.33H665.36V462.93H788.5v51.71a90.07,90.07,0,0,1-9.77,41.05A112.89,112.89,0,0,1,751.82,590,131.17,131.17,0,0,1,665.36,622Z"/></svg>